<svg width="799.68" height="599.76" viewBox="0 0 3332 2499" xmlns="http://www.w3.org/2000/svg">
  <g stroke-linecap="round" fill="none" stroke-width="15" stroke-linejoin="round" stroke="#2E2E36">
    <path d="M975.56,1039.70 L975.56,1002.13" />
    <path d="M520.69,826.22 L619.68,826.41" />
    <path d="M855.25,1193.69 L897.46,1193.69" />
    <path d="M1458.28,880.19 L1458.09,979.18" />
    <path d="M1512.25,478.69 L1554.46,478.69" />
    <path d="M1683.69,2275.22 L1782.68,2275.41" />
    <path d="M1680.69,1034.22 L1779.68,1034.41" />
    <path d="M1936.25,1639.69 L1978.46,1639.69" />
    <path d="M2015.31,1838.25 L2015.31,1880.46" />
    <path d="M1458.31,1394.25 L1458.31,1436.46" />
    <path d="M863.25,1714.69 L905.46,1714.69" />
    <path d="M685.25,1714.69 L727.46,1714.69" />
    <path d="M2015.28,883.19 L2015.09,982.18" />
    <path d="M2515.31,913.25 L2515.31,955.46" />
    <path d="M2098.25,1034.69 L2140.46,1034.69" />
    <path d="M2565.69,1639.22 L2664.68,1639.41" />
    <path d="M3112.28,1747.19 L3112.09,1846.18" />
  </g>
</svg>