<svg width="799.68" height="599.76" viewBox="0 0 3332 2499" xmlns="http://www.w3.org/2000/svg" fill="none" stroke="#CCC"
  stroke-width="10" stroke-linejoin="round" stroke-linecap="round">
  <g class="hatch">
    <path d="M1118.84,1429.74 L1127.62,1429.85" />
    <path d="M1118.64,1429.85 L1118.64,1438.21" />
    <path d="M1142.81,1429.74 L1163.26,1429.95" />
    <path d="M1187.26,1429.84 L1187.15,1438.62" />
    <path d="M1187.15,1429.64 L1178.79,1429.64" />
    <path d="M1187.26,1453.81 L1187.05,1474.26" />
    <path d="M1118.84,1429.74 L1127.62,1429.85" />
    <path d="M1118.64,1429.85 L1118.64,1438.21" />
    <path d="M1142.81,1429.74 L1163.26,1429.95" />
    <path d="M1187.26,1429.84 L1187.15,1438.62" />
    <path d="M1187.15,1429.64 L1178.79,1429.64" />
    <path d="M1187.26,1453.81 L1187.05,1474.26" />
    <path d="M1187.16,1497.26 L1178.38,1497.15" />
    <path d="M1187.36,1497.15 L1187.36,1488.79" />
    <path d="M1163.19,1497.26 L1142.74,1497.05" />
    <path d="M1187.16,1497.26 L1178.38,1497.15" />
    <path d="M1187.36,1497.15 L1187.36,1488.79" />
    <path d="M1163.19,1497.26 L1142.74,1497.05" />
    <path d="M1119.74,1497.16 L1119.85,1488.38" />
    <path d="M1119.85,1497.36 L1128.21,1497.36" />
    <path d="M1119.74,1473.19 L1119.95,1452.74" />
    <path d="M1119.74,1497.16 L1119.85,1488.38" />
    <path d="M1119.85,1497.36 L1128.21,1497.36" />
    <path d="M1119.74,1473.19 L1119.95,1452.74" />
  </g>
  <g class="hatch">
    <path d="M2252.84,863.74 L2261.62,863.85" />
    <path d="M2252.64,863.85 L2252.64,872.21" />
    <path d="M2276.81,863.74 L2297.26,863.95" />
    <path d="M2321.26,863.84 L2321.15,872.62" />
    <path d="M2321.15,863.64 L2312.79,863.64" />
    <path d="M2321.26,887.81 L2321.05,908.26" />
    <path d="M2252.84,863.74 L2261.62,863.85" />
    <path d="M2252.64,863.85 L2252.64,872.21" />
    <path d="M2276.81,863.74 L2297.26,863.95" />
    <path d="M2321.26,863.84 L2321.15,872.62" />
    <path d="M2321.15,863.64 L2312.79,863.64" />
    <path d="M2321.26,887.81 L2321.05,908.26" />
    <path d="M2321.16,931.26 L2312.38,931.15" />
    <path d="M2321.36,931.15 L2321.36,922.79" />
    <path d="M2297.19,931.26 L2276.74,931.05" />
    <path d="M2321.16,931.26 L2312.38,931.15" />
    <path d="M2321.36,931.15 L2321.36,922.79" />
    <path d="M2297.19,931.26 L2276.74,931.05" />
    <path d="M2253.74,931.16 L2253.85,922.38" />
    <path d="M2253.85,931.36 L2262.21,931.36" />
    <path d="M2253.74,907.19 L2253.95,886.74" />
    <path d="M2253.74,931.16 L2253.85,922.38" />
    <path d="M2253.85,931.36 L2262.21,931.36" />
    <path d="M2253.74,907.19 L2253.95,886.74" />
  </g>
  <g class="hatch">
    <path d="M2996.84,899.74 L3005.62,899.85" />
    <path d="M2996.64,899.85 L2996.64,908.21" />
    <path d="M3020.81,899.74 L3041.26,899.95" />
    <path d="M3065.26,899.84 L3065.15,908.62" />
    <path d="M3065.15,899.64 L3056.79,899.64" />
    <path d="M3065.26,923.81 L3065.05,944.26" />
    <path d="M2996.84,899.74 L3005.62,899.85" />
    <path d="M2996.64,899.85 L2996.64,908.21" />
    <path d="M3020.81,899.74 L3041.26,899.95" />
    <path d="M3065.26,899.84 L3065.15,908.62" />
    <path d="M3065.15,899.64 L3056.79,899.64" />
    <path d="M3065.26,923.81 L3065.05,944.26" />
    <path d="M3065.16,967.26 L3056.38,967.15" />
    <path d="M3065.36,967.15 L3065.36,958.79" />
    <path d="M3041.19,967.26 L3020.74,967.05" />
    <path d="M3065.16,967.26 L3056.38,967.15" />
    <path d="M3065.36,967.15 L3065.36,958.79" />
    <path d="M3041.19,967.26 L3020.74,967.05" />
    <path d="M2997.74,967.16 L2997.85,958.38" />
    <path d="M2997.85,967.36 L3006.21,967.36" />
    <path d="M2997.74,943.19 L2997.95,922.74" />
    <path d="M2997.74,967.16 L2997.85,958.38" />
    <path d="M2997.85,967.36 L3006.21,967.36" />
    <path d="M2997.74,943.19 L2997.95,922.74" />
  </g>
  <g class="hatch">
    <path d="M2798.84,1828.74 L2807.62,1828.85" />
    <path d="M2798.64,1828.85 L2798.64,1837.21" />
    <path d="M2822.81,1828.74 L2843.26,1828.95" />
    <path d="M2867.26,1828.84 L2867.15,1837.62" />
    <path d="M2867.15,1828.64 L2858.79,1828.64" />
    <path d="M2867.26,1852.81 L2867.05,1873.26" />
    <path d="M2798.84,1828.74 L2807.62,1828.85" />
    <path d="M2798.64,1828.85 L2798.64,1837.21" />
    <path d="M2822.81,1828.74 L2843.26,1828.95" />
    <path d="M2867.26,1828.84 L2867.15,1837.62" />
    <path d="M2867.15,1828.64 L2858.79,1828.64" />
    <path d="M2867.26,1852.81 L2867.05,1873.26" />
    <path d="M2867.16,1896.26 L2858.38,1896.15" />
    <path d="M2867.36,1896.15 L2867.36,1887.79" />
    <path d="M2843.19,1896.26 L2822.74,1896.05" />
    <path d="M2867.16,1896.26 L2858.38,1896.15" />
    <path d="M2867.36,1896.15 L2867.36,1887.79" />
    <path d="M2843.19,1896.26 L2822.74,1896.05" />
    <path d="M2799.74,1896.16 L2799.85,1887.38" />
    <path d="M2799.85,1896.36 L2808.21,1896.36" />
    <path d="M2799.74,1872.19 L2799.95,1851.74" />
    <path d="M2799.74,1896.16 L2799.85,1887.38" />
    <path d="M2799.85,1896.36 L2808.21,1896.36" />
    <path d="M2799.74,1872.19 L2799.95,1851.74" />
  </g>
</svg>