<svg width="799.68" height="599.76" viewBox="0.00 0.00 3332.00 2499.00" xmlns="http://www.w3.org/2000/svg"
  xmlns:xlink="http://www.w3.org/1999/xlink" fill="none" stroke="rgb(204, 204, 204)" stroke-width="10.00"
  stroke-opacity="1.00" stroke-linejoin="round">
  <g stroke-linecap="round" transform="translate(84.00, 70.00)">
    <g class="hatch">
      <path d="M1034.84,1359.74 L1043.62,1359.85" />
      <path d="M1034.64,1359.85 L1034.64,1368.21" />
      <path d="M1058.81,1359.74 L1079.26,1359.95" />
      <path d="M1103.26,1359.84 L1103.15,1368.62" />
      <path d="M1103.15,1359.64 L1094.79,1359.64" />
      <path d="M1103.26,1383.81 L1103.05,1404.26" />
      <path d="M1034.84,1359.74 L1043.62,1359.85" />
      <path d="M1034.64,1359.85 L1034.64,1368.21" />
      <path d="M1058.81,1359.74 L1079.26,1359.95" />
      <path d="M1103.26,1359.84 L1103.15,1368.62" />
      <path d="M1103.15,1359.64 L1094.79,1359.64" />
      <path d="M1103.26,1383.81 L1103.05,1404.26" />
      <path d="M1103.16,1427.26 L1094.38,1427.15" />
      <path d="M1103.36,1427.15 L1103.36,1418.79" />
      <path d="M1079.19,1427.26 L1058.74,1427.05" />
      <path d="M1103.16,1427.26 L1094.38,1427.15" />
      <path d="M1103.36,1427.15 L1103.36,1418.79" />
      <path d="M1079.19,1427.26 L1058.74,1427.05" />
      <path d="M1035.74,1427.16 L1035.85,1418.38" />
      <path d="M1035.85,1427.36 L1044.21,1427.36" />
      <path d="M1035.74,1403.19 L1035.95,1382.74" />
      <path d="M1035.74,1427.16 L1035.85,1418.38" />
      <path d="M1035.85,1427.36 L1044.21,1427.36" />
      <path d="M1035.74,1403.19 L1035.95,1382.74" />
    </g>
    <g class="hatch">
      <path d="M2168.84,793.74 L2177.62,793.85" />
      <path d="M2168.64,793.85 L2168.64,802.21" />
      <path d="M2192.81,793.74 L2213.26,793.95" />
      <path d="M2237.26,793.84 L2237.15,802.62" />
      <path d="M2237.15,793.64 L2228.79,793.64" />
      <path d="M2237.26,817.81 L2237.05,838.26" />
      <path d="M2168.84,793.74 L2177.62,793.85" />
      <path d="M2168.64,793.85 L2168.64,802.21" />
      <path d="M2192.81,793.74 L2213.26,793.95" />
      <path d="M2237.26,793.84 L2237.15,802.62" />
      <path d="M2237.15,793.64 L2228.79,793.64" />
      <path d="M2237.26,817.81 L2237.05,838.26" />
      <path d="M2237.16,861.26 L2228.38,861.15" />
      <path d="M2237.36,861.15 L2237.36,852.79" />
      <path d="M2213.19,861.26 L2192.74,861.05" />
      <path d="M2237.16,861.26 L2228.38,861.15" />
      <path d="M2237.36,861.15 L2237.36,852.79" />
      <path d="M2213.19,861.26 L2192.74,861.05" />
      <path d="M2169.74,861.16 L2169.85,852.38" />
      <path d="M2169.85,861.36 L2178.21,861.36" />
      <path d="M2169.74,837.19 L2169.95,816.74" />
      <path d="M2169.74,861.16 L2169.85,852.38" />
      <path d="M2169.85,861.36 L2178.21,861.36" />
      <path d="M2169.74,837.19 L2169.95,816.74" />
    </g>
    <g class="hatch">
      <path d="M2912.84,829.74 L2921.62,829.85" />
      <path d="M2912.64,829.85 L2912.64,838.21" />
      <path d="M2936.81,829.74 L2957.26,829.95" />
      <path d="M2981.26,829.84 L2981.15,838.62" />
      <path d="M2981.15,829.64 L2972.79,829.64" />
      <path d="M2981.26,853.81 L2981.05,874.26" />
      <path d="M2912.84,829.74 L2921.62,829.85" />
      <path d="M2912.64,829.85 L2912.64,838.21" />
      <path d="M2936.81,829.74 L2957.26,829.95" />
      <path d="M2981.26,829.84 L2981.15,838.62" />
      <path d="M2981.15,829.64 L2972.79,829.64" />
      <path d="M2981.26,853.81 L2981.05,874.26" />
      <path d="M2981.16,897.26 L2972.38,897.15" />
      <path d="M2981.36,897.15 L2981.36,888.79" />
      <path d="M2957.19,897.26 L2936.74,897.05" />
      <path d="M2981.16,897.26 L2972.38,897.15" />
      <path d="M2981.36,897.15 L2981.36,888.79" />
      <path d="M2957.19,897.26 L2936.74,897.05" />
      <path d="M2913.74,897.16 L2913.85,888.38" />
      <path d="M2913.85,897.36 L2922.21,897.36" />
      <path d="M2913.74,873.19 L2913.95,852.74" />
      <path d="M2913.74,897.16 L2913.85,888.38" />
      <path d="M2913.85,897.36 L2922.21,897.36" />
      <path d="M2913.74,873.19 L2913.95,852.74" />
    </g>
    <g class="hatch">
      <path d="M2714.84,1758.74 L2723.62,1758.85" />
      <path d="M2714.64,1758.85 L2714.64,1767.21" />
      <path d="M2738.81,1758.74 L2759.26,1758.95" />
      <path d="M2783.26,1758.84 L2783.15,1767.62" />
      <path d="M2783.15,1758.64 L2774.79,1758.64" />
      <path d="M2783.26,1782.81 L2783.05,1803.26" />
      <path d="M2714.84,1758.74 L2723.62,1758.85" />
      <path d="M2714.64,1758.85 L2714.64,1767.21" />
      <path d="M2738.81,1758.74 L2759.26,1758.95" />
      <path d="M2783.26,1758.84 L2783.15,1767.62" />
      <path d="M2783.15,1758.64 L2774.79,1758.64" />
      <path d="M2783.26,1782.81 L2783.05,1803.26" />
      <path d="M2783.16,1826.26 L2774.38,1826.15" />
      <path d="M2783.36,1826.15 L2783.36,1817.79" />
      <path d="M2759.19,1826.26 L2738.74,1826.05" />
      <path d="M2783.16,1826.26 L2774.38,1826.15" />
      <path d="M2783.36,1826.15 L2783.36,1817.79" />
      <path d="M2759.19,1826.26 L2738.74,1826.05" />
      <path d="M2715.74,1826.16 L2715.85,1817.38" />
      <path d="M2715.85,1826.36 L2724.21,1826.36" />
      <path d="M2715.74,1802.19 L2715.95,1781.74" />
      <path d="M2715.74,1826.16 L2715.85,1817.38" />
      <path d="M2715.85,1826.36 L2724.21,1826.36" />
      <path d="M2715.74,1802.19 L2715.95,1781.74" />
    </g>
  </g>
</svg>