<svg width="799.68" height="599.76" viewBox="0 0 3332 2499" xmlns="http://www.w3.org/2000/svg">
  <g stroke-linecap="round" fill="none" stroke="#CCC" stroke-width="5" stroke-linejoin="round">
    <path d="M654.36,1193.11 L803.00,1193.66" />
    <path d="M1171.71,1034.11 L1259.49,1034.66" />
    <path d="M1271.71,1034.11 L1359.49,1034.66" />
    <path d="M1458.39,1676.71 L1457.84,1783.14" />
    <path d="M1458.39,1795.71 L1457.84,1902.14" />
    <path d="M2024.71,1775.11 L2132.53,1775.66" />
    <path d="M1090.39,1356.21 L1089.84,1450.85" />
    <path d="M1090.39,1462.21 L1089.84,1556.85" />
    <path d="M1458.14,1170.71 L1458.34,1258.49" />
    <path d="M1457.65,1270.71 L1458.34,1358.49" />
    <path d="M797.14,1724.28 L797.34,1818.49" />
    <path d="M796.65,1830.71 L797.34,1925.15" />
    <path d="M2014.65,1338.71 L2015.34,1463.39" />
    <path d="M2014.65,1476.71 L2015.34,1601.39" />
    <path d="M2689.39,586.21 L2688.84,701.23" />
  </g>
</svg>