<svg width="799.68" height="599.76" viewBox="0 0 3332 2499" xmlns="http://www.w3.org/2000/svg" fill="none" stroke="#CCC"
  stroke-width="10" stroke-linejoin="round" stroke-linecap="round">

  <g class="hatch">
    <path d="M2494.84,1200.74 L2503.62,1200.85" />
    <path d="M2494.64,1200.85 L2494.64,1209.21" />
    <path d="M2518.81,1200.74 L2539.26,1200.95" />
    <path d="M2563.26,1200.84 L2563.15,1209.62" />
    <path d="M2563.15,1200.64 L2554.79,1200.64" />
    <path d="M2563.26,1224.81 L2563.05,1245.26" />
    <path d="M2494.84,1200.74 L2503.62,1200.85" />
    <path d="M2494.64,1200.85 L2494.64,1209.21" />
    <path d="M2518.81,1200.74 L2539.26,1200.95" />
    <path d="M2563.26,1200.84 L2563.15,1209.62" />
    <path d="M2563.15,1200.64 L2554.79,1200.64" />
    <path d="M2563.26,1224.81 L2563.05,1245.26" />
    <path d="M2563.16,1268.26 L2554.38,1268.15" />
    <path d="M2563.36,1268.15 L2563.36,1259.79" />
    <path d="M2539.19,1268.26 L2518.74,1268.05" />
    <path d="M2563.16,1268.26 L2554.38,1268.15" />
    <path d="M2563.36,1268.15 L2563.36,1259.79" />
    <path d="M2539.19,1268.26 L2518.74,1268.05" />
    <path d="M2495.74,1268.16 L2495.85,1259.38" />
    <path d="M2495.85,1268.36 L2504.21,1268.36" />
    <path d="M2495.74,1244.19 L2495.95,1223.74" />
    <path d="M2495.74,1268.16 L2495.85,1259.38" />
    <path d="M2495.85,1268.36 L2504.21,1268.36" />
    <path d="M2495.74,1244.19 L2495.95,1223.74" />
  </g>
  <g class="hatch">
    <path d="M453.84,1236.74 L462.62,1236.85" />
    <path d="M453.64,1236.85 L453.64,1245.21" />
    <path d="M477.81,1236.74 L498.26,1236.95" />
    <path d="M522.26,1236.84 L522.15,1245.62" />
    <path d="M522.15,1236.64 L513.79,1236.64" />
    <path d="M522.26,1260.81 L522.05,1281.26" />
    <path d="M453.84,1236.74 L462.62,1236.85" />
    <path d="M453.64,1236.85 L453.64,1245.21" />
    <path d="M477.81,1236.74 L498.26,1236.95" />
    <path d="M522.26,1236.84 L522.15,1245.62" />
    <path d="M522.15,1236.64 L513.79,1236.64" />
    <path d="M522.26,1260.81 L522.05,1281.26" />
    <path d="M522.16,1304.26 L513.38,1304.15" />
    <path d="M522.36,1304.15 L522.36,1295.79" />
    <path d="M498.19,1304.26 L477.74,1304.05" />
    <path d="M522.16,1304.26 L513.38,1304.15" />
    <path d="M522.36,1304.15 L522.36,1295.79" />
    <path d="M498.19,1304.26 L477.74,1304.05" />
    <path d="M454.74,1304.16 L454.85,1295.38" />
    <path d="M454.85,1304.36 L463.21,1304.36" />
    <path d="M454.74,1280.19 L454.95,1259.74" />
    <path d="M454.74,1304.16 L454.85,1295.38" />
    <path d="M454.85,1304.36 L463.21,1304.36" />
    <path d="M454.74,1280.19 L454.95,1259.74" />
  </g>
</svg>