<svg width="799.68" height="599.76" viewBox="0.00 0.00 3332.00 2499.00" xmlns="http://www.w3.org/2000/svg"
  xmlns:xlink="http://www.w3.org/1999/xlink" fill="none" stroke="rgb(204, 204, 204)" stroke-width="10.00"
  stroke-opacity="1.00" stroke-linejoin="round">
  <g stroke-linecap="round" transform="translate(-64.00, -56.00)">
    <g class="hatch">
      <path d="M2558.84,1256.74 L2567.62,1256.85" />
      <path d="M2558.64,1256.85 L2558.64,1265.21" />
      <path d="M2582.81,1256.74 L2603.26,1256.95" />
      <path d="M2627.26,1256.84 L2627.15,1265.62" />
      <path d="M2627.15,1256.64 L2618.79,1256.64" />
      <path d="M2627.26,1280.81 L2627.05,1301.26" />
      <path d="M2558.84,1256.74 L2567.62,1256.85" />
      <path d="M2558.64,1256.85 L2558.64,1265.21" />
      <path d="M2582.81,1256.74 L2603.26,1256.95" />
      <path d="M2627.26,1256.84 L2627.15,1265.62" />
      <path d="M2627.15,1256.64 L2618.79,1256.64" />
      <path d="M2627.26,1280.81 L2627.05,1301.26" />
      <path d="M2627.16,1324.26 L2618.38,1324.15" />
      <path d="M2627.36,1324.15 L2627.36,1315.79" />
      <path d="M2603.19,1324.26 L2582.74,1324.05" />
      <path d="M2627.16,1324.26 L2618.38,1324.15" />
      <path d="M2627.36,1324.15 L2627.36,1315.79" />
      <path d="M2603.19,1324.26 L2582.74,1324.05" />
      <path d="M2559.74,1324.16 L2559.85,1315.38" />
      <path d="M2559.85,1324.36 L2568.21,1324.36" />
      <path d="M2559.74,1300.19 L2559.95,1279.74" />
      <path d="M2559.74,1324.16 L2559.85,1315.38" />
      <path d="M2559.85,1324.36 L2568.21,1324.36" />
      <path d="M2559.74,1300.19 L2559.95,1279.74" />
    </g>
    <g class="hatch">
      <path d="M517.84,1292.74 L526.62,1292.85" />
      <path d="M517.64,1292.85 L517.64,1301.21" />
      <path d="M541.81,1292.74 L562.26,1292.95" />
      <path d="M586.26,1292.84 L586.15,1301.62" />
      <path d="M586.15,1292.64 L577.79,1292.64" />
      <path d="M586.26,1316.81 L586.05,1337.26" />
      <path d="M517.84,1292.74 L526.62,1292.85" />
      <path d="M517.64,1292.85 L517.64,1301.21" />
      <path d="M541.81,1292.74 L562.26,1292.95" />
      <path d="M586.26,1292.84 L586.15,1301.62" />
      <path d="M586.15,1292.64 L577.79,1292.64" />
      <path d="M586.26,1316.81 L586.05,1337.26" />
      <path d="M586.16,1360.26 L577.38,1360.15" />
      <path d="M586.36,1360.15 L586.36,1351.79" />
      <path d="M562.19,1360.26 L541.74,1360.05" />
      <path d="M586.16,1360.26 L577.38,1360.15" />
      <path d="M586.36,1360.15 L586.36,1351.79" />
      <path d="M562.19,1360.26 L541.74,1360.05" />
      <path d="M518.74,1360.16 L518.85,1351.38" />
      <path d="M518.85,1360.36 L527.21,1360.36" />
      <path d="M518.74,1336.19 L518.95,1315.74" />
      <path d="M518.74,1360.16 L518.85,1351.38" />
      <path d="M518.85,1360.36 L527.21,1360.36" />
      <path d="M518.74,1336.19 L518.95,1315.74" />
    </g>
  </g>
</svg>