<svg width="799.68" height="599.76" viewBox="0 0 3332 2499" xmlns="http://www.w3.org/2000/svg">
  <g stroke-linecap="round" fill="none" stroke="#CCC" stroke-width="5" stroke-linejoin="round">
    <path d="M833.39,629.21 L832.84,725.56" />
    <path d="M831.39,777.21 L830.84,862.21" />
    <path d="M831.39,876.21 L830.84,961.21" />
    <path d="M952.96,1466.89 L833.24,1467.17" />
    <path d="M1121.96,1466.89 L1002.24,1467.17" />
    <path d="M978.39,1492.21 L977.84,1590.25" />
    <path d="M978.39,1603.21 L977.84,1701.25" />
    <path d="M1763.71,1298.11 L1857.36,1298.66" />
    <path d="M1655.71,1298.11 L1749.36,1298.66" />
    <path d="M1427.71,1298.11 L1521.36,1298.66" />
    <path d="M1319.71,1298.11 L1413.36,1298.66" />
    <path d="M1527.85,1929.11 L1649.28,1929.66" />
    <path d="M2089.39,1423.71 L2088.84,1544.30" />
    <path d="M2437.94,1417.39 L2312.70,1416.84" />
    <path d="M2576.94,1417.39 L2451.70,1416.84" />
    <path d="M2598.39,1183.44 L2597.84,1284.88" />
    <path d="M2598.39,1069.44 L2597.84,1170.88" />
    <path d="M2598.39,1297.44 L2597.84,1398.88" />
  </g>
</svg>