<svg width="799.68" height="599.76" viewBox="0 0 3332 2499" xmlns="http://www.w3.org/2000/svg">
  <g stroke-linecap="round" fill="none" stroke="#2E2E36" stroke-width="15" stroke-linejoin="round">
    <path d="M2159.25,960.69 L2201.46,960.69" />
    <path d="M2272.25,1271.69 L2314.46,1271.69" />
    <path d="M2504.25,1544.69 L2546.46,1544.69" />
    <path d="M1712.25,795.69 L1754.46,795.69" />
    <path d="M1742.25,464.69 L1784.46,464.69" />
    <path d="M1610.25,311.69 L1652.46,311.69" />
    <path d="M1095.25,925.69 L1137.46,925.69" />
    <path d="M1093.25,1133.69 L1135.46,1133.69" />
    <path d="M917.25,1248.69 L959.46,1248.69" />
    <path d="M1052.25,1762.69 L1094.46,1762.69" />
    <path d="M520.25,1992.69 L562.46,1992.69" />
    <path d="M548.31,1466.25 L548.31,1508.46" />
    <path d="M349.31,1294.25 L349.31,1336.46" />
    <path d="M782.31,1857.25 L782.31,1899.46" />
    <path d="M873.31,761.25 L873.31,803.46" />
    <path d="M1367.31,840.25 L1367.31,882.46" />
    <path d="M1734.31,955.25 L1734.31,997.46" />
    <path d="M2111.31,1444.25 L2111.31,1486.46" />
    <path d="M2639.31,2069.25 L2639.31,2111.46" />
    <path d="M2699.31,1031.25 L2699.31,1073.46" />
    <path d="M2697.31,1434.25 L2697.31,1476.46" />
    <path d="M2054.31,839.25 L2054.31,881.46" />
    <path d="M1386.69,925.22 L1485.68,925.41" />
    <path d="M1734.28,1199.19 L1734.09,1298.18" />
    <path d="M1337.28,1246.19 L1337.09,1345.18" />
    <path d="M1921.28,1499.19 L1921.09,1598.18" />
    <path d="M2014.13,1312.50 L1935.80,1373.02" />
  </g>
</svg>