<svg width="799.68" height="599.76" viewBox="0.00 0.00 3332.00 2499.00" xmlns="http://www.w3.org/2000/svg"
  xmlns:xlink="http://www.w3.org/1999/xlink">
  <g stroke-linecap="round" fill="none" stroke="rgb(204, 204, 204)" stroke-width="10" stroke-opacity="1"
    stroke-linejoin="round">
    <g class="hatch">
      <path d="M2328.84,1141.74 L2337.62,1141.85" />
      <path d="M2328.64,1141.85 L2328.64,1150.21" />
      <path d="M2352.81,1141.74 L2373.26,1141.95" />
      <path d="M2397.26,1141.84 L2397.15,1150.62" />
      <path d="M2397.15,1141.64 L2388.79,1141.64" />
      <path d="M2397.26,1165.81 L2397.05,1186.26" />
      <path d="M2328.84,1141.74 L2337.62,1141.85" />
      <path d="M2328.64,1141.85 L2328.64,1150.21" />
      <path d="M2352.81,1141.74 L2373.26,1141.95" />
      <path d="M2397.26,1141.84 L2397.15,1150.62" />
      <path d="M2397.15,1141.64 L2388.79,1141.64" />
      <path d="M2397.26,1165.81 L2397.05,1186.26" />
      <path d="M2397.16,1209.26 L2388.38,1209.15" />
      <path d="M2397.36,1209.15 L2397.36,1200.79" />
      <path d="M2373.19,1209.26 L2352.74,1209.05" />
      <path d="M2397.16,1209.26 L2388.38,1209.15" />
      <path d="M2397.36,1209.15 L2397.36,1200.79" />
      <path d="M2373.19,1209.26 L2352.74,1209.05" />
      <path d="M2329.74,1209.16 L2329.85,1200.38" />
      <path d="M2329.85,1209.36 L2338.21,1209.36" />
      <path d="M2329.74,1185.19 L2329.95,1164.74" />
      <path d="M2329.74,1209.16 L2329.85,1200.38" />
      <path d="M2329.85,1209.36 L2338.21,1209.36" />
      <path d="M2329.74,1185.19 L2329.95,1164.74" />
    </g>
    <g class="hatch">
      <path d="M1540.84,1229.74 L1549.62,1229.85" />
      <path d="M1540.64,1229.85 L1540.64,1238.21" />
      <path d="M1564.81,1229.74 L1585.26,1229.95" />
      <path d="M1609.26,1229.84 L1609.15,1238.62" />
      <path d="M1609.15,1229.64 L1600.79,1229.64" />
      <path d="M1609.26,1253.81 L1609.05,1274.26" />
      <path d="M1540.84,1229.74 L1549.62,1229.85" />
      <path d="M1540.64,1229.85 L1540.64,1238.21" />
      <path d="M1564.81,1229.74 L1585.26,1229.95" />
      <path d="M1609.26,1229.84 L1609.15,1238.62" />
      <path d="M1609.15,1229.64 L1600.79,1229.64" />
      <path d="M1609.26,1253.81 L1609.05,1274.26" />
      <path d="M1609.16,1297.26 L1600.38,1297.15" />
      <path d="M1609.36,1297.15 L1609.36,1288.79" />
      <path d="M1585.19,1297.26 L1564.74,1297.05" />
      <path d="M1609.16,1297.26 L1600.38,1297.15" />
      <path d="M1609.36,1297.15 L1609.36,1288.79" />
      <path d="M1585.19,1297.26 L1564.74,1297.05" />
      <path d="M1541.74,1297.16 L1541.85,1288.38" />
      <path d="M1541.85,1297.36 L1550.21,1297.36" />
      <path d="M1541.74,1273.19 L1541.95,1252.74" />
      <path d="M1541.74,1297.16 L1541.85,1288.38" />
      <path d="M1541.85,1297.36 L1550.21,1297.36" />
      <path d="M1541.74,1273.19 L1541.95,1252.74" />
    </g>
    <g class="hatch">
      <path d="M1904.84,557.74 L1913.62,557.85" />
      <path d="M1904.64,557.85 L1904.64,566.21" />
      <path d="M1928.81,557.74 L1949.26,557.95" />
      <path d="M1973.26,557.84 L1973.15,566.62" />
      <path d="M1973.15,557.64 L1964.79,557.64" />
      <path d="M1973.26,581.81 L1973.05,602.26" />
      <path d="M1904.84,557.74 L1913.62,557.85" />
      <path d="M1904.64,557.85 L1904.64,566.21" />
      <path d="M1928.81,557.74 L1949.26,557.95" />
      <path d="M1973.26,557.84 L1973.15,566.62" />
      <path d="M1973.15,557.64 L1964.79,557.64" />
      <path d="M1973.26,581.81 L1973.05,602.26" />
      <path d="M1973.16,625.26 L1964.38,625.15" />
      <path d="M1973.36,625.15 L1973.36,616.79" />
      <path d="M1949.19,625.26 L1928.74,625.05" />
      <path d="M1973.16,625.26 L1964.38,625.15" />
      <path d="M1973.36,625.15 L1973.36,616.79" />
      <path d="M1949.19,625.26 L1928.74,625.05" />
      <path d="M1905.74,625.16 L1905.85,616.38" />
      <path d="M1905.85,625.36 L1914.21,625.36" />
      <path d="M1905.74,601.19 L1905.95,580.74" />
      <path d="M1905.74,625.16 L1905.85,616.38" />
      <path d="M1905.85,625.36 L1914.21,625.36" />
      <path d="M1905.74,601.19 L1905.95,580.74" />
    </g>
  </g>
</svg>