<svg width="799.68" height="599.76" viewBox="0.00 0.00 3332.00 2499.00" xmlns="http://www.w3.org/2000/svg"
  xmlns:xlink="http://www.w3.org/1999/xlink">
  <g fill="none" stroke="rgb(204, 204, 204)" stroke-width="10.00" stroke-opacity="1.00" stroke-linejoin="round">
    <g class="hatch">
      <path d="M2018.84,1112.74 L2027.62,1112.85" />
      <path d="M2018.64,1112.85 L2018.64,1121.21" />
      <path d="M2042.81,1112.74 L2063.26,1112.95" />
      <path d="M2087.26,1112.84 L2087.15,1121.62" />
      <path d="M2087.15,1112.64 L2078.79,1112.64" />
      <path d="M2087.26,1136.81 L2087.05,1157.26" />
      <path d="M2018.84,1112.74 L2027.62,1112.85" />
      <path d="M2018.64,1112.85 L2018.64,1121.21" />
      <path d="M2042.81,1112.74 L2063.26,1112.95" />
      <path d="M2087.26,1112.84 L2087.15,1121.62" />
      <path d="M2087.15,1112.64 L2078.79,1112.64" />
      <path d="M2087.26,1136.81 L2087.05,1157.26" />
      <path d="M2087.16,1180.26 L2078.38,1180.15" />
      <path d="M2087.36,1180.15 L2087.36,1171.79" />
      <path d="M2063.19,1180.26 L2042.74,1180.05" />
      <path d="M2087.16,1180.26 L2078.38,1180.15" />
      <path d="M2087.36,1180.15 L2087.36,1171.79" />
      <path d="M2063.19,1180.26 L2042.74,1180.05" />
      <path d="M2019.74,1180.16 L2019.85,1171.38" />
      <path d="M2019.85,1180.36 L2028.21,1180.36" />
      <path d="M2019.74,1156.19 L2019.95,1135.74" />
      <path d="M2019.74,1180.16 L2019.85,1171.38" />
      <path d="M2019.85,1180.36 L2028.21,1180.36" />
      <path d="M2019.74,1156.19 L2019.95,1135.74" />
    </g>
    <g class="hatch">
      <path d="M1205.84,1223.74 L1214.62,1223.85" />
      <path d="M1205.64,1223.85 L1205.64,1232.21" />
      <path d="M1229.81,1223.74 L1250.26,1223.95" />
      <path d="M1274.26,1223.84 L1274.15,1232.62" />
      <path d="M1274.15,1223.64 L1265.79,1223.64" />
      <path d="M1274.26,1247.81 L1274.05,1268.26" />
      <path d="M1205.84,1223.74 L1214.62,1223.85" />
      <path d="M1205.64,1223.85 L1205.64,1232.21" />
      <path d="M1229.81,1223.74 L1250.26,1223.95" />
      <path d="M1274.26,1223.84 L1274.15,1232.62" />
      <path d="M1274.15,1223.64 L1265.79,1223.64" />
      <path d="M1274.26,1247.81 L1274.05,1268.26" />
      <path d="M1274.16,1291.26 L1265.38,1291.15" />
      <path d="M1274.36,1291.15 L1274.36,1282.79" />
      <path d="M1250.19,1291.26 L1229.74,1291.05" />
      <path d="M1274.16,1291.26 L1265.38,1291.15" />
      <path d="M1274.36,1291.15 L1274.36,1282.79" />
      <path d="M1250.19,1291.26 L1229.74,1291.05" />
      <path d="M1206.74,1291.16 L1206.85,1282.38" />
      <path d="M1206.85,1291.36 L1215.21,1291.36" />
      <path d="M1206.74,1267.19 L1206.95,1246.74" />
      <path d="M1206.74,1291.16 L1206.85,1282.38" />
      <path d="M1206.85,1291.36 L1215.21,1291.36" />
      <path d="M1206.74,1267.19 L1206.95,1246.74" />
    </g>
  </g>

  </g>
</svg>