<svg width="799.68" height="599.76" viewBox="0 0 3332 2499" xmlns="http://www.w3.org/2000/svg">
  <g stroke-linecap="round" fill="none" stroke="#CCC" stroke-width="5" stroke-linejoin="round">
    <path d="M2268.62,1646.11 L2343.23,1646.66" />
    <path d="M2357.62,1646.11 L2432.23,1646.66" />
    <path d="M2387.62,1365.11 L2474.01,1365.66" />
    <path d="M2285.62,1365.11 L2372.01,1365.66" />
    <path d="M2613.39,1453.77 L2612.84,1528.51" />
    <path d="M2613.39,1364.77 L2612.84,1439.51" />
    <path d="M2433.39,1037.77 L2432.84,1126.76" />
    <path d="M2433.39,934.77 L2432.84,1023.76" />
    <path d="M2027.73,801.31 L1949.61,801.20" />
    <path d="M1934.73,801.31 L1856.61,801.20" />
    <path d="M1823.73,847.31 L1767.21,847.20" />
    <path d="M1751.73,847.31 L1695.21,847.20" />
    <path d="M1174.19,848.23 L1174.30,775.15" />
    <path d="M1174.19,936.23 L1174.30,863.15" />
    <path d="M1315.19,941.23 L1315.30,857.12" />
    <path d="M1315.19,1040.23 L1315.30,956.12" />
    <path d="M1438.19,1133.28 L1438.30,1060.12" />
    <path d="M1438.19,1395.28 L1438.30,1322.12" />
    <path d="M1438.19,1306.01 L1438.30,1233.69" />
    <path d="M1438.19,1219.01 L1438.30,1146.69" />
    <path d="M2054.19,892.86 L2054.30,810.30" />
  </g>
</svg>