<svg width="799.68" height="599.76" viewBox="0 0 3332 2499" xmlns="http://www.w3.org/2000/svg">
  <g stroke-linecap="round" fill="none" stroke="#CCC" stroke-width="5" stroke-linejoin="round">
    <path d="M1275.71,1146.11 L1358.23,1146.66" />
    <path d="M1371.71,1146.11 L1454.23,1146.66" />
    <path d="M1488.21,1146.11 L1561.85,1146.66" />
    <path d="M1576.21,1146.11 L1649.85,1146.66" />
    <path d="M1664.21,1146.11 L1737.85,1146.66" />
    <path d="M1804.21,1414.11 L1888.30,1414.66" />
    <path d="M1903.21,1414.11 L1987.30,1414.66" />
    <path d="M1784.39,1471.71 L1783.84,1545.25" />
    <path d="M1784.39,1559.71 L1783.84,1633.25" />
    <path d="M1784.39,1647.71 L1783.84,1721.25" />
    <path d="M1294.39,1278.71 L1293.84,1351.57" />
    <path d="M1294.39,1365.71 L1293.84,1438.57" />
    <path d="M1294.39,1453.71 L1293.84,1526.57" />
    <path d="M1287.91,131.12 L1327.78,57.17" />
    <path d="M1327.27,164.79 L1403.47,202.14" />
  </g>
</svg>