<svg width="799.68" height="599.76" viewBox="0 0 3332 2499" xmlns="http://www.w3.org/2000/svg">
  <g stroke-linecap="round" fill="none" stroke="#2E2E36" stroke-width="15" stroke-linejoin="round">
    <path d="M1832.31,437.25 L1832.31,479.46" />
    <path d="M2001.31,437.25 L2001.31,479.46" />
    <path d="M2001.31,593.25 L2001.31,635.46" />
    <path d="M1832.28,660.19 L1832.09,759.18" />
    <path d="M1768.25,883.69 L1810.46,883.69" />
    <path d="M2073.25,1070.69 L2115.46,1070.69" />
    <path d="M1765.31,1213.25 L1765.31,1255.46" />
    <path d="M1675.44,1598.38 L1745.57,1528.52" />
    <path d="M1993.28,1724.19 L1993.09,1823.18" />
    <path d="M1606.31,2092.25 L1606.31,2134.46" />
    <path d="M1405.25,1620.69 L1447.46,1620.69" />
    <path d="M863.25,2225.69 L905.46,2225.69" />
    <path d="M1086.25,1860.69 L1128.46,1860.69" />
    <path d="M1164.25,1461.69 L1206.46,1461.69" />
    <path d="M1222.25,2225.69 L1264.46,2225.69" />
  </g>
</svg>