<svg width="799.68" height="599.76" viewBox="0 0 3332 2499" xmlns="http://www.w3.org/2000/svg">
  <g stroke-linecap="round" fill="none" stroke="#CCC" stroke-width="10" stroke-linejoin="round">
    <g class="hatch">
      <path d="M2121.84,200.74 L2130.62,200.85" />
      <path d="M2121.64,200.85 L2121.64,209.21" />
      <path d="M2145.81,200.74 L2166.26,200.95" />
      <path d="M2190.26,200.84 L2190.15,209.62" />
      <path d="M2190.15,200.64 L2181.79,200.64" />
      <path d="M2190.26,224.81 L2190.05,245.26" />
      <path d="M2121.84,200.74 L2130.62,200.85" />
      <path d="M2121.64,200.85 L2121.64,209.21" />
      <path d="M2145.81,200.74 L2166.26,200.95" />
      <path d="M2190.26,200.84 L2190.15,209.62" />
      <path d="M2190.15,200.64 L2181.79,200.64" />
      <path d="M2190.26,224.81 L2190.05,245.26" />
      <path d="M2190.16,268.26 L2181.38,268.15" />
      <path d="M2190.36,268.15 L2190.36,259.79" />
      <path d="M2166.19,268.26 L2145.74,268.05" />
      <path d="M2190.16,268.26 L2181.38,268.15" />
      <path d="M2190.36,268.15 L2190.36,259.79" />
      <path d="M2166.19,268.26 L2145.74,268.05" />
      <path d="M2122.74,268.16 L2122.85,259.38" />
      <path d="M2122.85,268.36 L2131.21,268.36" />
      <path d="M2122.74,244.19 L2122.95,223.74" />
      <path d="M2122.74,268.16 L2122.85,259.38" />
      <path d="M2122.85,268.36 L2131.21,268.36" />
      <path d="M2122.74,244.19 L2122.95,223.74" />
    </g>
    <g class="hatch">
      <path d="M1899.84,2102.74 L1908.62,2102.85" />
      <path d="M1899.64,2102.85 L1899.64,2111.21" />
      <path d="M1923.81,2102.74 L1944.26,2102.95" />
      <path d="M1968.26,2102.84 L1968.15,2111.62" />
      <path d="M1968.15,2102.64 L1959.79,2102.64" />
      <path d="M1968.26,2126.81 L1968.05,2147.26" />
      <path d="M1899.84,2102.74 L1908.62,2102.85" />
      <path d="M1899.64,2102.85 L1899.64,2111.21" />
      <path d="M1923.81,2102.74 L1944.26,2102.95" />
      <path d="M1968.26,2102.84 L1968.15,2111.62" />
      <path d="M1968.15,2102.64 L1959.79,2102.64" />
      <path d="M1968.26,2126.81 L1968.05,2147.26" />
      <path d="M1968.16,2170.26 L1959.38,2170.15" />
      <path d="M1968.36,2170.15 L1968.36,2161.79" />
      <path d="M1944.19,2170.26 L1923.74,2170.05" />
      <path d="M1968.16,2170.26 L1959.38,2170.15" />
      <path d="M1968.36,2170.15 L1968.36,2161.79" />
      <path d="M1944.19,2170.26 L1923.74,2170.05" />
      <path d="M1900.74,2170.16 L1900.85,2161.38" />
      <path d="M1900.85,2170.36 L1909.21,2170.36" />
      <path d="M1900.74,2146.19 L1900.95,2125.74" />
      <path d="M1900.74,2170.16 L1900.85,2161.38" />
      <path d="M1900.85,2170.36 L1909.21,2170.36" />
      <path d="M1900.74,2146.19 L1900.95,2125.74" />
    </g>
    <g class="hatch">
      <path d="M2112.84,1364.74 L2121.62,1364.85" />
      <path d="M2112.64,1364.85 L2112.64,1373.21" />
      <path d="M2136.81,1364.74 L2157.26,1364.95" />
      <path d="M2181.26,1364.84 L2181.15,1373.62" />
      <path d="M2181.15,1364.64 L2172.79,1364.64" />
      <path d="M2181.26,1388.81 L2181.05,1409.26" />
      <path d="M2112.84,1364.74 L2121.62,1364.85" />
      <path d="M2112.64,1364.85 L2112.64,1373.21" />
      <path d="M2136.81,1364.74 L2157.26,1364.95" />
      <path d="M2181.26,1364.84 L2181.15,1373.62" />
      <path d="M2181.15,1364.64 L2172.79,1364.64" />
      <path d="M2181.26,1388.81 L2181.05,1409.26" />
      <path d="M2181.16,1432.26 L2172.38,1432.15" />
      <path d="M2181.36,1432.15 L2181.36,1423.79" />
      <path d="M2157.19,1432.26 L2136.74,1432.05" />
      <path d="M2181.16,1432.26 L2172.38,1432.15" />
      <path d="M2181.36,1432.15 L2181.36,1423.79" />
      <path d="M2157.19,1432.26 L2136.74,1432.05" />
      <path d="M2113.74,1432.16 L2113.85,1423.38" />
      <path d="M2113.85,1432.36 L2122.21,1432.36" />
      <path d="M2113.74,1408.19 L2113.95,1387.74" />
      <path d="M2113.74,1432.16 L2113.85,1423.38" />
      <path d="M2113.85,1432.36 L2122.21,1432.36" />
      <path d="M2113.74,1408.19 L2113.95,1387.74" />
    </g>
  </g>
</svg>