<svg width="799.68" height="599.76" viewBox="0 0 3332 2499" xmlns="http://www.w3.org/2000/svg">
  <g stroke-linecap="round" fill="none" stroke="#CCC" stroke-width="5" stroke-linejoin="round">
    <path d="M2010.71,537.11 L2108.42,537.66" />
    <path d="M2119.70,537.45 L2217.12,537.71" />
    <path d="M1621.39,537.11 L1716.02,537.66" />
    <path d="M1727.72,537.45 L1822.12,537.71" />
    <path d="M2001.05,782.98 L2000.79,873.62" />
    <path d="M2001.05,680.98 L2000.79,771.62" />
    <path d="M1841.71,883.11 L1910.43,883.66" />
    <path d="M1922.71,883.11 L1991.43,883.66" />
    <path d="M2001.39,893.21 L2000.84,958.86" />
    <path d="M2000.60,970.37 L2000.84,1036.15" />
    <path d="M1765.33,1302.71 L1765.34,1371.43" />
    <path d="M1765.33,1383.71 L1765.34,1452.43" />
    <path d="M1774.71,1462.11 L1872.42,1462.66" />
    <path d="M1883.70,1462.45 L1981.12,1462.71" />
    <path d="M1302.39,2249.88 L1301.84,2337.61" />
    <path d="M1504.20,1620.11 L1595.52,1620.89" />
    <path d="M1256.20,1620.11 L1347.52,1620.89" />
    <path d="M1188.39,1870.18 L1187.84,1948.00" />
    <path d="M1188.39,1959.18 L1187.84,2037.00" />
    <path d="M1188.39,2048.18 L1187.84,2126.00" />
    <path d="M1188.39,2138.18 L1187.84,2216.00" />
    <path d="M971.71,2225.11 L1069.42,2225.66" />
    <path d="M1080.70,2225.45 L1178.12,2225.71" />
  </g>
</svg>