<svg width="799.68" height="599.76" viewBox="0 0 3332 2499" xmlns="http://www.w3.org/2000/svg">
  <g stroke-linecap="round" fill="none" stroke="#CCC" stroke-width="10" stroke-linejoin="round">
    <g class="hatch">
      <path d="M2123.84,944.74 L2132.62,944.85" />
      <path d="M2123.64,944.85 L2123.64,953.21" />
      <path d="M2147.81,944.74 L2168.26,944.95" />
      <path d="M2192.26,944.84 L2192.15,953.62" />
      <path d="M2192.15,944.64 L2183.79,944.64" />
      <path d="M2192.26,968.81 L2192.05,989.26" />
      <path d="M2123.84,944.74 L2132.62,944.85" />
      <path d="M2123.64,944.85 L2123.64,953.21" />
      <path d="M2147.81,944.74 L2168.26,944.95" />
      <path d="M2192.26,944.84 L2192.15,953.62" />
      <path d="M2192.15,944.64 L2183.79,944.64" />
      <path d="M2192.26,968.81 L2192.05,989.26" />
      <path d="M2192.16,1012.26 L2183.38,1012.15" />
      <path d="M2192.36,1012.15 L2192.36,1003.79" />
      <path d="M2168.19,1012.26 L2147.74,1012.05" />
      <path d="M2192.16,1012.26 L2183.38,1012.15" />
      <path d="M2192.36,1012.15 L2192.36,1003.79" />
      <path d="M2168.19,1012.26 L2147.74,1012.05" />
      <path d="M2124.74,1012.16 L2124.85,1003.38" />
      <path d="M2124.85,1012.36 L2133.21,1012.36" />
      <path d="M2124.74,988.19 L2124.95,967.74" />
      <path d="M2124.74,1012.16 L2124.85,1003.38" />
      <path d="M2124.85,1012.36 L2133.21,1012.36" />
      <path d="M2124.74,988.19 L2124.95,967.74" />
    </g>
    <g class="hatch">
      <path d="M1269.84,1698.74 L1278.62,1698.85" />
      <path d="M1269.64,1698.85 L1269.64,1707.21" />
      <path d="M1293.81,1698.74 L1314.26,1698.95" />
      <path d="M1338.26,1698.84 L1338.15,1707.62" />
      <path d="M1338.15,1698.64 L1329.79,1698.64" />
      <path d="M1338.26,1722.81 L1338.05,1743.26" />
      <path d="M1269.84,1698.74 L1278.62,1698.85" />
      <path d="M1269.64,1698.85 L1269.64,1707.21" />
      <path d="M1293.81,1698.74 L1314.26,1698.95" />
      <path d="M1338.26,1698.84 L1338.15,1707.62" />
      <path d="M1338.15,1698.64 L1329.79,1698.64" />
      <path d="M1338.26,1722.81 L1338.05,1743.26" />
      <path d="M1338.16,1766.26 L1329.38,1766.15" />
      <path d="M1338.36,1766.15 L1338.36,1757.79" />
      <path d="M1314.19,1766.26 L1293.74,1766.05" />
      <path d="M1338.16,1766.26 L1329.38,1766.15" />
      <path d="M1338.36,1766.15 L1338.36,1757.79" />
      <path d="M1314.19,1766.26 L1293.74,1766.05" />
      <path d="M1270.74,1766.16 L1270.85,1757.38" />
      <path d="M1270.85,1766.36 L1279.21,1766.36" />
      <path d="M1270.74,1742.19 L1270.95,1721.74" />
      <path d="M1270.74,1766.16 L1270.85,1757.38" />
      <path d="M1270.85,1766.36 L1279.21,1766.36" />
      <path d="M1270.74,1742.19 L1270.95,1721.74" />
    </g>
    <g class="hatch">
      <path d="M867.84,1889.74 L876.62,1889.85" />
      <path d="M867.64,1889.85 L867.64,1898.21" />
      <path d="M891.81,1889.74 L912.26,1889.95" />
      <path d="M936.26,1889.84 L936.15,1898.62" />
      <path d="M936.15,1889.64 L927.79,1889.64" />
      <path d="M936.26,1913.81 L936.05,1934.26" />
      <path d="M867.84,1889.74 L876.62,1889.85" />
      <path d="M867.64,1889.85 L867.64,1898.21" />
      <path d="M891.81,1889.74 L912.26,1889.95" />
      <path d="M936.26,1889.84 L936.15,1898.62" />
      <path d="M936.15,1889.64 L927.79,1889.64" />
      <path d="M936.26,1913.81 L936.05,1934.26" />
      <path d="M936.16,1957.26 L927.38,1957.15" />
      <path d="M936.36,1957.15 L936.36,1948.79" />
      <path d="M912.19,1957.26 L891.74,1957.05" />
      <path d="M936.16,1957.26 L927.38,1957.15" />
      <path d="M936.36,1957.15 L936.36,1948.79" />
      <path d="M912.19,1957.26 L891.74,1957.05" />
      <path d="M868.74,1957.16 L868.85,1948.38" />
      <path d="M868.85,1957.36 L877.21,1957.36" />
      <path d="M868.74,1933.19 L868.95,1912.74" />
      <path d="M868.74,1957.16 L868.85,1948.38" />
      <path d="M868.85,1957.36 L877.21,1957.36" />
      <path d="M868.74,1933.19 L868.95,1912.74" />
    </g>
  </g>
</svg>