<svg width="799.68" height="599.76" viewBox="0 0 3332 2499" xmlns="http://www.w3.org/2000/svg">
  <g stroke-linecap="round" fill="none" stroke="#CCC" stroke-width="5" stroke-linejoin="round">
    <path d="M1921.25,538.11 L1991.23,538.66" />
    <path d="M1840.28,538.11 L1910.18,538.66" />
    <path d="M1830.89,548.28 L1831.33,626.40" />
    <path d="M1830.89,638.25 L1831.33,716.36" />
    <path d="M1921.25,882.11 L1991.23,882.66" />
    <path d="M1840.28,882.11 L1910.18,882.66" />
    <path d="M1831.05,736.07 L1831.34,798.86" />
    <path d="M1831.05,810.07 L1831.34,872.86" />
    <path d="M2098.75,1070.89 L2009.84,1071.33" />
    <path d="M2199.75,1070.89 L2110.84,1071.33" />
    <path d="M1765.88,1563.57 L1765.60,1470.64" />
    <path d="M1766.06,1667.35 L1765.67,1574.46" />
    <path d="M1885.57,1677.25 L1982.55,1677.19" />
    <path d="M1775.57,1677.25 L1872.55,1677.19" />
    <path d="M1358.88,1763.37 L1358.60,1686.67" />
    <path d="M1358.88,1851.37 L1358.60,1774.67" />
    <path d="M1358.88,1947.37 L1358.60,1870.67" />
    <path d="M1358.88,2035.37 L1358.60,1958.67" />
    <path d="M1103.13,1861.38 L1179.83,1861.10" />
    <path d="M1273.13,1861.38 L1349.83,1861.10" />
  </g>
</svg>