<svg width="799.68" height="599.76" viewBox="0.00 0.00 3332.00 2499.00" xmlns="http://www.w3.org/2000/svg"
  xmlns:xlink="http://www.w3.org/1999/xlink" fill="none" stroke="rgb(204, 204, 204)" stroke-width="10.00"
  stroke-opacity="1.00" stroke-linejoin="round">
  <g stroke-linecap="round" transform="translate(36.00, -18.00)">
    <g class="hatch">
      <path d="M2061.84,1601.74 L2070.62,1601.85" />
      <path d="M2061.64,1601.85 L2061.64,1610.21" />
      <path d="M2085.81,1601.74 L2106.26,1601.95" />
      <path d="M2130.26,1601.84 L2130.15,1610.62" />
      <path d="M2130.15,1601.64 L2121.79,1601.64" />
      <path d="M2130.26,1625.81 L2130.05,1646.26" />
      <path d="M2061.84,1601.74 L2070.62,1601.85" />
      <path d="M2061.64,1601.85 L2061.64,1610.21" />
      <path d="M2085.81,1601.74 L2106.26,1601.95" />
      <path d="M2130.26,1601.84 L2130.15,1610.62" />
      <path d="M2130.15,1601.64 L2121.79,1601.64" />
      <path d="M2130.26,1625.81 L2130.05,1646.26" />
      <path d="M2130.16,1669.26 L2121.38,1669.15" />
      <path d="M2130.36,1669.15 L2130.36,1660.79" />
      <path d="M2106.19,1669.26 L2085.74,1669.05" />
      <path d="M2130.16,1669.26 L2121.38,1669.15" />
      <path d="M2130.36,1669.15 L2130.36,1660.79" />
      <path d="M2106.19,1669.26 L2085.74,1669.05" />
      <path d="M2062.74,1669.16 L2062.85,1660.38" />
      <path d="M2062.85,1669.36 L2071.21,1669.36" />
      <path d="M2062.74,1645.19 L2062.95,1624.74" />
      <path d="M2062.74,1669.16 L2062.85,1660.38" />
      <path d="M2062.85,1669.36 L2071.21,1669.36" />
      <path d="M2062.74,1645.19 L2062.95,1624.74" />
    </g>
    <g class="hatch">
      <path d="M1170.84,874.74 L1179.62,874.85" />
      <path d="M1170.64,874.85 L1170.64,883.21" />
      <path d="M1194.81,874.74 L1215.26,874.95" />
      <path d="M1239.26,874.84 L1239.15,883.62" />
      <path d="M1239.15,874.64 L1230.79,874.64" />
      <path d="M1239.26,898.81 L1239.05,919.26" />
      <path d="M1170.84,874.74 L1179.62,874.85" />
      <path d="M1170.64,874.85 L1170.64,883.21" />
      <path d="M1194.81,874.74 L1215.26,874.95" />
      <path d="M1239.26,874.84 L1239.15,883.62" />
      <path d="M1239.15,874.64 L1230.79,874.64" />
      <path d="M1239.26,898.81 L1239.05,919.26" />
      <path d="M1239.16,942.26 L1230.38,942.15" />
      <path d="M1239.36,942.15 L1239.36,933.79" />
      <path d="M1215.19,942.26 L1194.74,942.05" />
      <path d="M1239.16,942.26 L1230.38,942.15" />
      <path d="M1239.36,942.15 L1239.36,933.79" />
      <path d="M1215.19,942.26 L1194.74,942.05" />
      <path d="M1171.74,942.16 L1171.85,933.38" />
      <path d="M1171.85,942.36 L1180.21,942.36" />
      <path d="M1171.74,918.19 L1171.95,897.74" />
      <path d="M1171.74,942.16 L1171.85,933.38" />
      <path d="M1171.85,942.36 L1180.21,942.36" />
      <path d="M1171.74,918.19 L1171.95,897.74" />
    </g>
    <g class="hatch">
      <path d="M2539.84,1087.74 L2548.62,1087.85" />
      <path d="M2539.64,1087.85 L2539.64,1096.21" />
      <path d="M2563.81,1087.74 L2584.26,1087.95" />
      <path d="M2608.26,1087.84 L2608.15,1096.62" />
      <path d="M2608.15,1087.64 L2599.79,1087.64" />
      <path d="M2608.26,1111.81 L2608.05,1132.26" />
      <path d="M2539.84,1087.74 L2548.62,1087.85" />
      <path d="M2539.64,1087.85 L2539.64,1096.21" />
      <path d="M2563.81,1087.74 L2584.26,1087.95" />
      <path d="M2608.26,1087.84 L2608.15,1096.62" />
      <path d="M2608.15,1087.64 L2599.79,1087.64" />
      <path d="M2608.26,1111.81 L2608.05,1132.26" />
      <path d="M2608.16,1155.26 L2599.38,1155.15" />
      <path d="M2608.36,1155.15 L2608.36,1146.79" />
      <path d="M2584.19,1155.26 L2563.74,1155.05" />
      <path d="M2608.16,1155.26 L2599.38,1155.15" />
      <path d="M2608.36,1155.15 L2608.36,1146.79" />
      <path d="M2584.19,1155.26 L2563.74,1155.05" />
      <path d="M2540.74,1155.16 L2540.85,1146.38" />
      <path d="M2540.85,1155.36 L2549.21,1155.36" />
      <path d="M2540.74,1131.19 L2540.95,1110.74" />
      <path d="M2540.74,1155.16 L2540.85,1146.38" />
      <path d="M2540.85,1155.36 L2549.21,1155.36" />
      <path d="M2540.74,1131.19 L2540.95,1110.74" />
    </g>
    <g class="hatch">
      <path d="M1167.84,1987.74 L1176.62,1987.85" />
      <path d="M1167.64,1987.85 L1167.64,1996.21" />
      <path d="M1191.81,1987.74 L1212.26,1987.95" />
      <path d="M1236.26,1987.84 L1236.15,1996.62" />
      <path d="M1236.15,1987.64 L1227.79,1987.64" />
      <path d="M1236.26,2011.81 L1236.05,2032.26" />
      <path d="M1167.84,1987.74 L1176.62,1987.85" />
      <path d="M1167.64,1987.85 L1167.64,1996.21" />
      <path d="M1191.81,1987.74 L1212.26,1987.95" />
      <path d="M1236.26,1987.84 L1236.15,1996.62" />
      <path d="M1236.15,1987.64 L1227.79,1987.64" />
      <path d="M1236.26,2011.81 L1236.05,2032.26" />
      <path d="M1236.16,2055.26 L1227.38,2055.15" />
      <path d="M1236.36,2055.15 L1236.36,2046.79" />
      <path d="M1212.19,2055.26 L1191.74,2055.05" />
      <path d="M1236.16,2055.26 L1227.38,2055.15" />
      <path d="M1236.36,2055.15 L1236.36,2046.79" />
      <path d="M1212.19,2055.26 L1191.74,2055.05" />
      <path d="M1168.74,2055.16 L1168.85,2046.38" />
      <path d="M1168.85,2055.36 L1177.21,2055.36" />
      <path d="M1168.74,2031.19 L1168.95,2010.74" />
      <path d="M1168.74,2055.16 L1168.85,2046.38" />
      <path d="M1168.85,2055.36 L1177.21,2055.36" />
      <path d="M1168.74,2031.19 L1168.95,2010.74" />
    </g>
    <g class="hatch">
      <path d="M1808.84,1760.74 L1817.62,1760.85" />
      <path d="M1808.64,1760.85 L1808.64,1769.21" />
      <path d="M1832.81,1760.74 L1853.26,1760.95" />
      <path d="M1877.26,1760.84 L1877.15,1769.62" />
      <path d="M1877.15,1760.64 L1868.79,1760.64" />
      <path d="M1877.26,1784.81 L1877.05,1805.26" />
      <path d="M1808.84,1760.74 L1817.62,1760.85" />
      <path d="M1808.64,1760.85 L1808.64,1769.21" />
      <path d="M1832.81,1760.74 L1853.26,1760.95" />
      <path d="M1877.26,1760.84 L1877.15,1769.62" />
      <path d="M1877.15,1760.64 L1868.79,1760.64" />
      <path d="M1877.26,1784.81 L1877.05,1805.26" />
      <path d="M1877.16,1828.26 L1868.38,1828.15" />
      <path d="M1877.36,1828.15 L1877.36,1819.79" />
      <path d="M1853.19,1828.26 L1832.74,1828.05" />
      <path d="M1877.16,1828.26 L1868.38,1828.15" />
      <path d="M1877.36,1828.15 L1877.36,1819.79" />
      <path d="M1853.19,1828.26 L1832.74,1828.05" />
      <path d="M1809.74,1828.16 L1809.85,1819.38" />
      <path d="M1809.85,1828.36 L1818.21,1828.36" />
      <path d="M1809.74,1804.19 L1809.95,1783.74" />
      <path d="M1809.74,1828.16 L1809.85,1819.38" />
      <path d="M1809.85,1828.36 L1818.21,1828.36" />
      <path d="M1809.74,1804.19 L1809.95,1783.74" />
    </g>
  </g>
</svg>