<svg width="799.68" height="599.76" viewBox="0 0 3332 2499" xmlns="http://www.w3.org/2000/svg" fill="none" stroke="#CCC"
  stroke-width="10" stroke-linejoin="round">
  <g stroke-linecap="round">
    <g class="hatch">
      <path d="M2097.84,1583.74 L2106.62,1583.85" />
      <path d="M2097.64,1583.85 L2097.64,1592.21" />
      <path d="M2121.81,1583.74 L2142.26,1583.95" />
      <path d="M2166.26,1583.84 L2166.15,1592.62" />
      <path d="M2166.15,1583.64 L2157.79,1583.64" />
      <path d="M2166.26,1607.81 L2166.05,1628.26" />
      <path d="M2097.84,1583.74 L2106.62,1583.85" />
      <path d="M2097.64,1583.85 L2097.64,1592.21" />
      <path d="M2121.81,1583.74 L2142.26,1583.95" />
      <path d="M2166.26,1583.84 L2166.15,1592.62" />
      <path d="M2166.15,1583.64 L2157.79,1583.64" />
      <path d="M2166.26,1607.81 L2166.05,1628.26" />
      <path d="M2166.16,1651.26 L2157.38,1651.15" />
      <path d="M2166.36,1651.15 L2166.36,1642.79" />
      <path d="M2142.19,1651.26 L2121.74,1651.05" />
      <path d="M2166.16,1651.26 L2157.38,1651.15" />
      <path d="M2166.36,1651.15 L2166.36,1642.79" />
      <path d="M2142.19,1651.26 L2121.74,1651.05" />
      <path d="M2098.74,1651.16 L2098.85,1642.38" />
      <path d="M2098.85,1651.36 L2107.21,1651.36" />
      <path d="M2098.74,1627.19 L2098.95,1606.74" />
      <path d="M2098.74,1651.16 L2098.85,1642.38" />
      <path d="M2098.85,1651.36 L2107.21,1651.36" />
      <path d="M2098.74,1627.19 L2098.95,1606.74" />
    </g>
    <g class="hatch">
      <path d="M1206.84,856.74 L1215.62,856.85" />
      <path d="M1206.64,856.85 L1206.64,865.21" />
      <path d="M1230.81,856.74 L1251.26,856.95" />
      <path d="M1275.26,856.84 L1275.15,865.62" />
      <path d="M1275.15,856.64 L1266.79,856.64" />
      <path d="M1275.26,880.81 L1275.05,901.26" />
      <path d="M1206.84,856.74 L1215.62,856.85" />
      <path d="M1206.64,856.85 L1206.64,865.21" />
      <path d="M1230.81,856.74 L1251.26,856.95" />
      <path d="M1275.26,856.84 L1275.15,865.62" />
      <path d="M1275.15,856.64 L1266.79,856.64" />
      <path d="M1275.26,880.81 L1275.05,901.26" />
      <path d="M1275.16,924.26 L1266.38,924.15" />
      <path d="M1275.36,924.15 L1275.36,915.79" />
      <path d="M1251.19,924.26 L1230.74,924.05" />
      <path d="M1275.16,924.26 L1266.38,924.15" />
      <path d="M1275.36,924.15 L1275.36,915.79" />
      <path d="M1251.19,924.26 L1230.74,924.05" />
      <path d="M1207.74,924.16 L1207.85,915.38" />
      <path d="M1207.85,924.36 L1216.21,924.36" />
      <path d="M1207.74,900.19 L1207.95,879.74" />
      <path d="M1207.74,924.16 L1207.85,915.38" />
      <path d="M1207.85,924.36 L1216.21,924.36" />
      <path d="M1207.74,900.19 L1207.95,879.74" />
    </g>
    <g class="hatch">
      <path d="M2575.84,1069.74 L2584.62,1069.85" />
      <path d="M2575.64,1069.85 L2575.64,1078.21" />
      <path d="M2599.81,1069.74 L2620.26,1069.95" />
      <path d="M2644.26,1069.84 L2644.15,1078.62" />
      <path d="M2644.15,1069.64 L2635.79,1069.64" />
      <path d="M2644.26,1093.81 L2644.05,1114.26" />
      <path d="M2575.84,1069.74 L2584.62,1069.85" />
      <path d="M2575.64,1069.85 L2575.64,1078.21" />
      <path d="M2599.81,1069.74 L2620.26,1069.95" />
      <path d="M2644.26,1069.84 L2644.15,1078.62" />
      <path d="M2644.15,1069.64 L2635.79,1069.64" />
      <path d="M2644.26,1093.81 L2644.05,1114.26" />
      <path d="M2644.16,1137.26 L2635.38,1137.15" />
      <path d="M2644.36,1137.15 L2644.36,1128.79" />
      <path d="M2620.19,1137.26 L2599.74,1137.05" />
      <path d="M2644.16,1137.26 L2635.38,1137.15" />
      <path d="M2644.36,1137.15 L2644.36,1128.79" />
      <path d="M2620.19,1137.26 L2599.74,1137.05" />
      <path d="M2576.74,1137.16 L2576.85,1128.38" />
      <path d="M2576.85,1137.36 L2585.21,1137.36" />
      <path d="M2576.74,1113.19 L2576.95,1092.74" />
      <path d="M2576.74,1137.16 L2576.85,1128.38" />
      <path d="M2576.85,1137.36 L2585.21,1137.36" />
      <path d="M2576.74,1113.19 L2576.95,1092.74" />
    </g>
    <g class="hatch">
      <path d="M1203.84,1969.74 L1212.62,1969.85" />
      <path d="M1203.64,1969.85 L1203.64,1978.21" />
      <path d="M1227.81,1969.74 L1248.26,1969.95" />
      <path d="M1272.26,1969.84 L1272.15,1978.62" />
      <path d="M1272.15,1969.64 L1263.79,1969.64" />
      <path d="M1272.26,1993.81 L1272.05,2014.26" />
      <path d="M1203.84,1969.74 L1212.62,1969.85" />
      <path d="M1203.64,1969.85 L1203.64,1978.21" />
      <path d="M1227.81,1969.74 L1248.26,1969.95" />
      <path d="M1272.26,1969.84 L1272.15,1978.62" />
      <path d="M1272.15,1969.64 L1263.79,1969.64" />
      <path d="M1272.26,1993.81 L1272.05,2014.26" />
      <path d="M1272.16,2037.26 L1263.38,2037.15" />
      <path d="M1272.36,2037.15 L1272.36,2028.79" />
      <path d="M1248.19,2037.26 L1227.74,2037.05" />
      <path d="M1272.16,2037.26 L1263.38,2037.15" />
      <path d="M1272.36,2037.15 L1272.36,2028.79" />
      <path d="M1248.19,2037.26 L1227.74,2037.05" />
      <path d="M1204.74,2037.16 L1204.85,2028.38" />
      <path d="M1204.85,2037.36 L1213.21,2037.36" />
      <path d="M1204.74,2013.19 L1204.95,1992.74" />
      <path d="M1204.74,2037.16 L1204.85,2028.38" />
      <path d="M1204.85,2037.36 L1213.21,2037.36" />
      <path d="M1204.74,2013.19 L1204.95,1992.74" />
    </g>
    <g class="hatch">
      <path d="M1844.84,1742.74 L1853.62,1742.85" />
      <path d="M1844.64,1742.85 L1844.64,1751.21" />
      <path d="M1868.81,1742.74 L1889.26,1742.95" />
      <path d="M1913.26,1742.84 L1913.15,1751.62" />
      <path d="M1913.15,1742.64 L1904.79,1742.64" />
      <path d="M1913.26,1766.81 L1913.05,1787.26" />
      <path d="M1844.84,1742.74 L1853.62,1742.85" />
      <path d="M1844.64,1742.85 L1844.64,1751.21" />
      <path d="M1868.81,1742.74 L1889.26,1742.95" />
      <path d="M1913.26,1742.84 L1913.15,1751.62" />
      <path d="M1913.15,1742.64 L1904.79,1742.64" />
      <path d="M1913.26,1766.81 L1913.05,1787.26" />
      <path d="M1913.16,1810.26 L1904.38,1810.15" />
      <path d="M1913.36,1810.15 L1913.36,1801.79" />
      <path d="M1889.19,1810.26 L1868.74,1810.05" />
      <path d="M1913.16,1810.26 L1904.38,1810.15" />
      <path d="M1913.36,1810.15 L1913.36,1801.79" />
      <path d="M1889.19,1810.26 L1868.74,1810.05" />
      <path d="M1845.74,1810.16 L1845.85,1801.38" />
      <path d="M1845.85,1810.36 L1854.21,1810.36" />
      <path d="M1845.74,1786.19 L1845.95,1765.74" />
      <path d="M1845.74,1810.16 L1845.85,1801.38" />
      <path d="M1845.85,1810.36 L1854.21,1810.36" />
      <path d="M1845.74,1786.19 L1845.95,1765.74" />
    </g>
  </g>
</svg>