<?xml version="1.0" encoding="UTF-8" standalone="no"?>
<!DOCTYPE svg PUBLIC "-//W3C//DTD SVG 1.1//EN" "http://www.w3.org/Graphics/SVG/1.1/DTD/svg11.dtd">
<svg width="799.68" height="599.76" viewBox="0.00 0.00 3332.00 2499.00" xmlns="http://www.w3.org/2000/svg" xmlns:xlink="http://www.w3.org/1999/xlink">
<g stroke-linecap="round" transform="translate(36.00, -18.00)" id="REINFORCEMENT_Copy_6">
<path d="M297.71,1664.11 L380.23,1664.66" fill="none" stroke="rgb(204, 204, 204)" stroke-width="5.00" stroke-opacity="1.00" stroke-linejoin="round"/>
<path d="M393.71,1664.11 L476.23,1664.66" fill="none" stroke="rgb(204, 204, 204)" stroke-width="5.00" stroke-opacity="1.00" stroke-linejoin="round"/>
<path d="M691.71,1664.11 L774.23,1664.66" fill="none" stroke="rgb(204, 204, 204)" stroke-width="5.00" stroke-opacity="1.00" stroke-linejoin="round"/>
<path d="M787.71,1664.11 L870.23,1664.66" fill="none" stroke="rgb(204, 204, 204)" stroke-width="5.00" stroke-opacity="1.00" stroke-linejoin="round"/>
<path d="M905.39,1674.39 L904.84,1762.73" fill="none" stroke="rgb(204, 204, 204)" stroke-width="5.00" stroke-opacity="1.00" stroke-linejoin="round"/>
<path d="M905.39,1776.39 L904.84,1864.73" fill="none" stroke="rgb(204, 204, 204)" stroke-width="5.00" stroke-opacity="1.00" stroke-linejoin="round"/>
<path d="M1483.39,996.36 L1482.84,1114.51" fill="none" stroke="rgb(204, 204, 204)" stroke-width="5.00" stroke-opacity="1.00" stroke-linejoin="round"/>
<path d="M1483.39,1128.30 L1482.84,1246.63" fill="none" stroke="rgb(204, 204, 204)" stroke-width="5.00" stroke-opacity="1.00" stroke-linejoin="round"/>
<path d="M1411.20,1721.89 L1308.55,1722.02" fill="none" stroke="rgb(204, 204, 204)" stroke-width="5.00" stroke-opacity="1.00" stroke-linejoin="round"/>
<path d="M1525.20,1721.89 L1422.55,1722.02" fill="none" stroke="rgb(204, 204, 204)" stroke-width="5.00" stroke-opacity="1.00" stroke-linejoin="round"/>
<path d="M1808.39,847.39 L1807.84,945.65" fill="none" stroke="rgb(204, 204, 204)" stroke-width="5.00" stroke-opacity="1.00" stroke-linejoin="round"/>
<path d="M1808.39,1175.39 L1807.84,1273.65" fill="none" stroke="rgb(204, 204, 204)" stroke-width="5.00" stroke-opacity="1.00" stroke-linejoin="round"/>
<path d="M1808.39,1066.39 L1807.84,1164.65" fill="none" stroke="rgb(204, 204, 204)" stroke-width="5.00" stroke-opacity="1.00" stroke-linejoin="round"/>
<path d="M1808.39,956.39 L1807.84,1054.65" fill="none" stroke="rgb(204, 204, 204)" stroke-width="5.00" stroke-opacity="1.00" stroke-linejoin="round"/>
<path d="M2197.67,1462.89 L2089.55,1463.02" fill="none" stroke="rgb(204, 204, 204)" stroke-width="5.00" stroke-opacity="1.00" stroke-linejoin="round"/>
<path d="M2076.67,1462.89 L1968.55,1463.02" fill="none" stroke="rgb(204, 204, 204)" stroke-width="5.00" stroke-opacity="1.00" stroke-linejoin="round"/>
<path d="M1955.67,1462.89 L1847.55,1463.02" fill="none" stroke="rgb(204, 204, 204)" stroke-width="5.00" stroke-opacity="1.00" stroke-linejoin="round"/>
<path d="M2227.61,1712.10 L2228.46,1619.00" fill="none" stroke="rgb(204, 204, 204)" stroke-width="5.00" stroke-opacity="1.00" stroke-linejoin="round"/>
<path d="M2227.61,1608.10 L2228.46,1515.00" fill="none" stroke="rgb(204, 204, 204)" stroke-width="5.00" stroke-opacity="1.00" stroke-linejoin="round"/>
<path d="M2303.40,1463.11 L2389.98,1463.03" fill="none" stroke="rgb(204, 204, 204)" stroke-width="5.00" stroke-opacity="1.00" stroke-linejoin="round"/>
<path d="M2402.40,1463.11 L2488.98,1463.03" fill="none" stroke="rgb(204, 204, 204)" stroke-width="5.00" stroke-opacity="1.00" stroke-linejoin="round"/>
<path d="M2501.40,1463.11 L2587.98,1463.03" fill="none" stroke="rgb(204, 204, 204)" stroke-width="5.00" stroke-opacity="1.00" stroke-linejoin="round"/>
<path d="M2600.40,1463.11 L2686.98,1463.03" fill="none" stroke="rgb(204, 204, 204)" stroke-width="5.00" stroke-opacity="1.00" stroke-linejoin="round"/>
<path d="M2846.61,1612.10 L2847.46,1519.00" fill="none" stroke="rgb(204, 204, 204)" stroke-width="5.00" stroke-opacity="1.00" stroke-linejoin="round"/>
<path d="M2846.61,1508.10 L2847.46,1415.00" fill="none" stroke="rgb(204, 204, 204)" stroke-width="5.00" stroke-opacity="1.00" stroke-linejoin="round"/>
<path d="M2228.39,2117.21 L2227.84,2184.77" fill="none" stroke="rgb(204, 204, 204)" stroke-width="5.00" stroke-opacity="1.00" stroke-linejoin="round"/>
<path d="M2228.39,2030.21 L2227.84,2097.77" fill="none" stroke="rgb(204, 204, 204)" stroke-width="5.00" stroke-opacity="1.00" stroke-linejoin="round"/>
<path d="M2227.61,1810.18 L2228.46,1731.89" fill="none" stroke="rgb(204, 204, 204)" stroke-width="5.00" stroke-opacity="1.00" stroke-linejoin="round"/>
<path d="M2227.61,1899.41 L2228.46,1820.56" fill="none" stroke="rgb(204, 204, 204)" stroke-width="5.00" stroke-opacity="1.00" stroke-linejoin="round"/>
<path d="M2339.16,2106.89 L2237.55,2107.02" fill="none" stroke="rgb(204, 204, 204)" stroke-width="5.00" stroke-opacity="1.00" stroke-linejoin="round"/>
<path d="M2453.16,2106.89 L2351.55,2107.02" fill="none" stroke="rgb(204, 204, 204)" stroke-width="5.00" stroke-opacity="1.00" stroke-linejoin="round"/>
<path d="M2567.16,2106.89 L2465.55,2107.02" fill="none" stroke="rgb(204, 204, 204)" stroke-width="5.00" stroke-opacity="1.00" stroke-linejoin="round"/>
</g>
</svg>
