<svg width="799.68" height="599.76" viewBox="0 0 3332 2499" xmlns="http://www.w3.org/2000/svg">
  <g stroke-linecap="round" fill="none" stroke="#CCC" stroke-width="5" stroke-linejoin="round">
    <path d="M333.71,1646.11 L416.23,1646.66" />
    <path d="M429.71,1646.11 L512.23,1646.66" />
    <path d="M727.71,1646.11 L810.23,1646.66" />
    <path d="M823.71,1646.11 L906.23,1646.66" />
    <path d="M941.39,1656.39 L940.84,1744.73" />
    <path d="M941.39,1758.39 L940.84,1846.73" />
    <path d="M1519.39,978.36 L1518.84,1096.51" />
    <path d="M1519.39,1110.30 L1518.84,1228.63" />
    <path d="M1447.20,1703.89 L1344.55,1704.02" />
    <path d="M1561.20,1703.89 L1458.55,1704.02" />
    <path d="M1844.39,829.39 L1843.84,927.65" />
    <path d="M1844.39,1157.39 L1843.84,1255.65" />
    <path d="M1844.39,1048.39 L1843.84,1146.65" />
    <path d="M1844.39,938.39 L1843.84,1036.65" />
    <path d="M2233.67,1444.89 L2125.55,1445.02" />
    <path d="M2112.67,1444.89 L2004.55,1445.02" />
    <path d="M1991.67,1444.89 L1883.55,1445.02" />
    <path d="M2263.61,1694.10 L2264.46,1601.00" />
    <path d="M2263.61,1590.10 L2264.46,1497.00" />
    <path d="M2339.40,1445.11 L2425.98,1445.03" />
    <path d="M2438.40,1445.11 L2524.98,1445.03" />
    <path d="M2537.40,1445.11 L2623.98,1445.03" />
    <path d="M2636.40,1445.11 L2722.98,1445.03" />
    <path d="M2882.61,1594.10 L2883.46,1501.00" />
    <path d="M2882.61,1490.10 L2883.46,1397.00" />
    <path d="M2264.39,2099.21 L2263.84,2166.77" />
    <path d="M2264.39,2012.21 L2263.84,2079.77" />
    <path d="M2263.61,1792.18 L2264.46,1713.89" />
    <path d="M2263.61,1881.41 L2264.46,1802.56" />
    <path d="M2375.16,2088.89 L2273.55,2089.02" />
    <path d="M2489.16,2088.89 L2387.55,2089.02" />
    <path d="M2603.16,2088.89 L2501.55,2089.02" />
  </g>
</svg>