<svg width="799.68" height="599.76" viewBox="0.00 0.00 3332.00 2499.00" xmlns="http://www.w3.org/2000/svg"
  xmlns:xlink="http://www.w3.org/1999/xlink" fill="none" stroke="rgb(204, 204, 204)" stroke-width="10.00"
  stroke-opacity="1.00" stroke-linejoin="round">
  <g stroke-linecap="round" transform="translate(96.00, -43.00)">
    <g class="hatch">
      <path d="M1947.84,1580.74 L1956.62,1580.85" />
      <path d="M1947.64,1580.85 L1947.64,1589.21" />
      <path d="M1971.81,1580.74 L1992.26,1580.95" />
      <path d="M2016.26,1580.84 L2016.15,1589.62" />
      <path d="M2016.15,1580.64 L2007.79,1580.64" />
      <path d="M2016.26,1604.81 L2016.05,1625.26" />
      <path d="M1947.84,1580.74 L1956.62,1580.85" />
      <path d="M1947.64,1580.85 L1947.64,1589.21" />
      <path d="M1971.81,1580.74 L1992.26,1580.95" />
      <path d="M2016.26,1580.84 L2016.15,1589.62" />
      <path d="M2016.15,1580.64 L2007.79,1580.64" />
      <path d="M2016.26,1604.81 L2016.05,1625.26" />
      <path d="M2016.16,1648.26 L2007.38,1648.15" />
      <path d="M2016.36,1648.15 L2016.36,1639.79" />
      <path d="M1992.19,1648.26 L1971.74,1648.05" />
      <path d="M2016.16,1648.26 L2007.38,1648.15" />
      <path d="M2016.36,1648.15 L2016.36,1639.79" />
      <path d="M1992.19,1648.26 L1971.74,1648.05" />
      <path d="M1948.74,1648.16 L1948.85,1639.38" />
      <path d="M1948.85,1648.36 L1957.21,1648.36" />
      <path d="M1948.74,1624.19 L1948.95,1603.74" />
      <path d="M1948.74,1648.16 L1948.85,1639.38" />
      <path d="M1948.85,1648.36 L1957.21,1648.36" />
      <path d="M1948.74,1624.19 L1948.95,1603.74" />
    </g>
    <g class="hatch">
      <path d="M1693.84,2208.74 L1702.62,2208.85" />
      <path d="M1693.64,2208.85 L1693.64,2217.21" />
      <path d="M1717.81,2208.74 L1738.26,2208.95" />
      <path d="M1762.26,2208.84 L1762.15,2217.62" />
      <path d="M1762.15,2208.64 L1753.79,2208.64" />
      <path d="M1762.26,2232.81 L1762.05,2253.26" />
      <path d="M1693.84,2208.74 L1702.62,2208.85" />
      <path d="M1693.64,2208.85 L1693.64,2217.21" />
      <path d="M1717.81,2208.74 L1738.26,2208.95" />
      <path d="M1762.26,2208.84 L1762.15,2217.62" />
      <path d="M1762.15,2208.64 L1753.79,2208.64" />
      <path d="M1762.26,2232.81 L1762.05,2253.26" />
      <path d="M1762.16,2276.26 L1753.38,2276.15" />
      <path d="M1762.36,2276.15 L1762.36,2267.79" />
      <path d="M1738.19,2276.26 L1717.74,2276.05" />
      <path d="M1762.16,2276.26 L1753.38,2276.15" />
      <path d="M1762.36,2276.15 L1762.36,2267.79" />
      <path d="M1738.19,2276.26 L1717.74,2276.05" />
      <path d="M1694.74,2276.16 L1694.85,2267.38" />
      <path d="M1694.85,2276.36 L1703.21,2276.36" />
      <path d="M1694.74,2252.19 L1694.95,2231.74" />
      <path d="M1694.74,2276.16 L1694.85,2267.38" />
      <path d="M1694.85,2276.36 L1703.21,2276.36" />
      <path d="M1694.74,2252.19 L1694.95,2231.74" />
    </g>
  </g>
</svg>