<svg width="799.68" height="599.76" viewBox="0 0 3332 2499" xmlns="http://www.w3.org/2000/svg" fill="none" stroke="#CCC"
  stroke-width="10" stroke-linejoin="round" stroke-linecap="round">
  <g class="hatch">
    <path d="M2043.84,1537.74 L2052.62,1537.85" />
    <path d="M2043.64,1537.85 L2043.64,1546.21" />
    <path d="M2067.81,1537.74 L2088.26,1537.95" />
    <path d="M2112.26,1537.84 L2112.15,1546.62" />
    <path d="M2112.15,1537.64 L2103.79,1537.64" />
    <path d="M2112.26,1561.81 L2112.05,1582.26" />
    <path d="M2043.84,1537.74 L2052.62,1537.85" />
    <path d="M2043.64,1537.85 L2043.64,1546.21" />
    <path d="M2067.81,1537.74 L2088.26,1537.95" />
    <path d="M2112.26,1537.84 L2112.15,1546.62" />
    <path d="M2112.15,1537.64 L2103.79,1537.64" />
    <path d="M2112.26,1561.81 L2112.05,1582.26" />
    <path d="M2112.16,1605.26 L2103.38,1605.15" />
    <path d="M2112.36,1605.15 L2112.36,1596.79" />
    <path d="M2088.19,1605.26 L2067.74,1605.05" />
    <path d="M2112.16,1605.26 L2103.38,1605.15" />
    <path d="M2112.36,1605.15 L2112.36,1596.79" />
    <path d="M2088.19,1605.26 L2067.74,1605.05" />
    <path d="M2044.74,1605.16 L2044.85,1596.38" />
    <path d="M2044.85,1605.36 L2053.21,1605.36" />
    <path d="M2044.74,1581.19 L2044.95,1560.74" />
    <path d="M2044.74,1605.16 L2044.85,1596.38" />
    <path d="M2044.85,1605.36 L2053.21,1605.36" />
    <path d="M2044.74,1581.19 L2044.95,1560.74" />
  </g>
  <g class="hatch">
    <path d="M1789.84,2165.74 L1798.62,2165.85" />
    <path d="M1789.64,2165.85 L1789.64,2174.21" />
    <path d="M1813.81,2165.74 L1834.26,2165.95" />
    <path d="M1858.26,2165.84 L1858.15,2174.62" />
    <path d="M1858.15,2165.64 L1849.79,2165.64" />
    <path d="M1858.26,2189.81 L1858.05,2210.26" />
    <path d="M1789.84,2165.74 L1798.62,2165.85" />
    <path d="M1789.64,2165.85 L1789.64,2174.21" />
    <path d="M1813.81,2165.74 L1834.26,2165.95" />
    <path d="M1858.26,2165.84 L1858.15,2174.62" />
    <path d="M1858.15,2165.64 L1849.79,2165.64" />
    <path d="M1858.26,2189.81 L1858.05,2210.26" />
    <path d="M1858.16,2233.26 L1849.38,2233.15" />
    <path d="M1858.36,2233.15 L1858.36,2224.79" />
    <path d="M1834.19,2233.26 L1813.74,2233.05" />
    <path d="M1858.16,2233.26 L1849.38,2233.15" />
    <path d="M1858.36,2233.15 L1858.36,2224.79" />
    <path d="M1834.19,2233.26 L1813.74,2233.05" />
    <path d="M1790.74,2233.16 L1790.85,2224.38" />
    <path d="M1790.85,2233.36 L1799.21,2233.36" />
    <path d="M1790.74,2209.19 L1790.95,2188.74" />
    <path d="M1790.74,2233.16 L1790.85,2224.38" />
    <path d="M1790.85,2233.36 L1799.21,2233.36" />
    <path d="M1790.74,2209.19 L1790.95,2188.74" />
  </g>
</svg>