<svg width="799.68" height="599.76" viewBox="0 0 3332 2499" xmlns="http://www.w3.org/2000/svg">
  <g stroke-linecap="round" fill="none" stroke="#CCC" stroke-width="5" stroke-linejoin="round">
    <path d="M1001.39,1632.39 L1000.84,1720.73" />
    <path d="M1001.39,1734.39 L1000.84,1822.73" />
    <path d="M1242.71,1678.11 L1341.45,1678.66" />
    <path d="M1501.39,1270.39 L1500.84,1363.34" />
    <path d="M1501.39,1165.37 L1500.84,1257.73" />
    <path d="M1351.39,1534.39 L1350.84,1627.34" />
    <path d="M1351.39,1429.37 L1350.84,1521.73" />
    <path d="M1904.39,1534.39 L1903.84,1627.34" />
    <path d="M1904.39,1429.37 L1903.84,1521.73" />
    <path d="M1851.63,1678.39 L1747.13,1677.84" />
    <path d="M1733.63,1678.39 L1629.13,1677.84" />
    <path d="M1615.63,1678.39 L1511.13,1677.84" />
    <path d="M1904.39,1058.39 L1903.84,1151.34" />
    <path d="M1904.39,953.37 L1903.84,1045.73" />
    <path d="M1904.39,1281.83 L1903.84,1362.34" />
    <path d="M2352.39,804.37 L2351.84,888.50" />
    <path d="M2352.39,901.37 L2351.84,985.50" />
    <path d="M2352.39,1181.37 L2351.84,1265.50" />
    <path d="M2352.39,1278.37 L2351.84,1362.50" />
    <path d="M2044.90,1372.39 L1960.66,1371.84" />
    <path d="M2140.90,1372.39 L2056.66,1371.84" />
    <path d="M2237.90,1372.39 L2153.66,1371.84" />
    <path d="M2334.90,1372.39 L2250.66,1371.84" />
    <path d="M2256.17,1964.39 L2167.67,1963.84" />
    <path d="M2155.17,1964.39 L2066.67,1963.84" />
    <path d="M2054.17,1964.39 L1965.67,1963.84" />
  </g>
</svg>