<svg width="799.68" height="599.76" viewBox="0 0 3332 2499" xmlns="http://www.w3.org/2000/svg">
  <g stroke-linecap="round" fill="none" stroke="#60606E" stroke-width="7" stroke-linejoin="round">
    <path d="M1340.71,957.85 L1380.65,950.21" />
    <path d="M1249.25,992.57 L1286.12,975.40" />
    <path d="M1178.98,1058.99 L1204.43,1027.27" />
    <path d="M1136.61,1145.25 L1150.91,1107.17" />
    <path d="M1639.34,943.06 L1724.52,943.06" />
    <path d="M1751.34,943.06 L1836.52,943.06" />
    <path d="M1722.34,792.06 L1763.01,792.06" />
    <path d="M1795.34,792.06 L1836.01,792.06" />
    <path d="M2093.34,792.06 L2134.01,792.06" />
    <path d="M2166.34,792.06 L2207.01,792.06" />
    <path d="M2468.34,792.06 L2509.01,792.06" />
    <path d="M2541.34,792.06 L2582.01,792.06" />
    <path d="M2867.34,792.06 L2908.01,792.06" />
    <path d="M2940.34,792.06 L2981.01,792.06" />
    <path d="M2267.94,2012.34 L2267.94,2097.52" />
    <path d="M2267.94,2144.34 L2267.94,2229.52" />
  </g>
</svg>