<svg width="799.68" height="599.76" viewBox="0 0 3332 2499" xmlns="http://www.w3.org/2000/svg">
  <g stroke-linecap="round" fill="none" stroke="#CCC" stroke-width="5" stroke-linejoin="round">
    <path d="M2571.39,874.21 L2570.84,971.73" />
    <path d="M2438.79,864.39 L2360.77,863.84" />
    <path d="M2129.39,914.21 L2128.84,983.97" />
    <path d="M2129.39,995.21 L2128.84,1064.97" />
    <path d="M2129.39,1181.21 L2128.84,1250.97" />
    <path d="M2129.39,1099.21 L2128.84,1168.97" />
    <path d="M1923.39,914.21 L1922.84,983.97" />
    <path d="M1923.39,995.21 L1922.84,1064.97" />
    <path d="M1923.39,1181.21 L1922.84,1250.97" />
    <path d="M1923.39,1099.21 L1922.84,1168.97" />
    <path d="M1461.39,1054.79 L1460.84,1143.73" />
    <path d="M1461.39,953.79 L1460.84,1042.73" />
    <path d="M1565.79,1272.39 L1496.03,1271.84" />
    <path d="M1647.79,1272.39 L1578.03,1271.84" />
    <path d="M2036.65,1444.39 L1943.03,1443.84" />
  </g>
</svg>